Coordinates
version=1
nRows=27
nColumns=12
inDegrees=yes

Units are S.I. units (second, meters, Newtons, ...)
Angles are in degrees

endheader
time	SC_y	SC_z	SC_x	AC_y	AC_z	AC_x	GH_y	GH_z	GH_yy	EL_x	PS_y
       0.0              -31.32           33.9          22.44          52.28          9.577         -8.453         -49.99          7.159         -59.56          110.4          18.27
  0.003535              -31.32           33.9          22.44          52.28          9.576          -8.45          -50.0          7.162         -59.53          110.4          18.27
   0.00707              -31.32           33.9          22.45          52.28          9.574         -8.448         -50.01          7.164          -59.5          110.4          18.28
    0.0106              -31.32          33.89          22.46          52.28          9.573         -8.445         -50.01          7.166         -59.46          110.3          18.28
   0.01414              -31.33          33.89          22.47          52.28          9.572         -8.442         -50.02          7.169         -59.43          110.3          18.28
   0.01767              -31.33          33.88          22.48          52.28          9.571         -8.439         -50.03          7.172         -59.39          110.3          18.28
   0.02121              -31.33          33.88          22.49          52.28          9.569         -8.435         -50.04          7.175         -59.35          110.3          18.28
   0.02474              -31.34          33.87           22.5          52.28          9.568         -8.431         -50.05          7.178          -59.3          110.3          18.28
   0.02828              -31.34          33.87          22.51          52.28          9.566         -8.427         -50.06          7.181         -59.26          110.3          18.28
   0.03181              -31.35          33.86          22.52          52.28          9.564         -8.423         -50.07          7.185         -59.21          110.3          18.28
   0.03535              -31.35          33.85          22.53          52.28          9.562         -8.418         -50.09          7.189         -59.15          110.2          18.28
   0.03888              -31.36          33.85          22.55          52.28           9.56         -8.413          -50.1          7.193         -59.09          110.2          18.28
   0.04242              -31.36          33.84          22.56          52.28          9.558         -8.408         -50.11          7.198         -59.03          110.2          18.28
   0.04595              -31.37          33.83          22.58          52.29          9.555         -8.402         -50.13          7.203         -58.96          110.2          18.28
   0.04949              -31.37          33.82           22.6          52.29          9.553         -8.396         -50.15          7.208         -58.89          110.1          18.28
   0.05302              -31.38          33.81          22.62          52.29           9.55         -8.389         -50.16          7.214         -58.81          110.1          18.29
   0.05656              -31.39           33.8          22.64          52.29          9.547         -8.382         -50.18           7.22         -58.72          110.1          18.29
   0.06009               -31.4          33.79          22.66          52.29          9.543         -8.374          -50.2          7.227         -58.63          110.0          18.29
   0.06363               -31.4          33.78          22.68          52.29           9.54         -8.365         -50.23          7.235         -58.52          110.0          18.29
   0.06716              -31.41          33.76          22.71          52.29          9.536         -8.355         -50.25          7.243         -58.41          110.0          18.29
    0.0707              -31.42          33.75          22.74           52.3          9.531         -8.345         -50.28          7.252         -58.29          109.9          18.29
   0.07423              -31.44          33.73          22.77           52.3          9.526         -8.333         -50.31          7.262         -58.15          109.9           18.3
   0.07777              -31.45          33.71          22.81           52.3          9.521          -8.32         -50.35          7.273          -58.0          109.8           18.3
    0.0813              -31.46          33.69          22.85           52.3          9.515         -8.306         -50.39          7.285         -57.83          109.7           18.3
   0.08484              -31.48          33.67          22.89          52.31          9.508          -8.29         -50.43          7.299         -57.65          109.7           18.3
   0.08837               -31.5          33.64          22.94          52.31          9.501         -8.273         -50.47          7.314         -57.44          109.6          18.31
   0.09191              -31.52          33.62           23.0          52.31          9.493         -8.253         -50.53          7.331         -57.21          109.5          18.31
